HIERARCHY
ROOT Hips
{
  OFFSET -0.140052 91.4537 0.142408
  CHANNELS 6 Xposition Yposition Zposition Zrotation Xrotation Yrotation
  JOINT Spine
  {
    OFFSET -0.000355721 21.3001 -0.016921
    CHANNELS 3 Zrotation Xrotation Yrotation
    JOINT LeftArm
    {
      OFFSET 13.5181 21.3012 0
      CHANNELS 3 Zrotation Xrotation Yrotation
      JOINT LeftForeArm
      {
        OFFSET 24.5783 0 0
        CHANNELS 3 Zrotation Xrotation Yrotation
        JOINT LeftHand
        {
          OFFSET 24.5783 0 0
          CHANNELS 3 Zrotation Xrotation Yrotation
          End Site
          {
            OFFSET 7.32568 1.52588e-05 0.0169305
          }
        }
      }
    }
    JOINT Head
    {
      OFFSET 0 27.4458 -0.00489235
      CHANNELS 3 Zrotation Xrotation Yrotation
      End Site
      {
        OFFSET 0 0 0
      }
    }
    JOINT RightArm
    {
      OFFSET -13.5174 21.3012 0
      CHANNELS 3 Zrotation Xrotation Yrotation
      JOINT RightForeArm
      {
        OFFSET -24.5783 0 0
        CHANNELS 3 Zrotation Xrotation Yrotation
        JOINT RightHand
        {
          OFFSET -24.5783 0 0
          CHANNELS 3 Zrotation Xrotation Yrotation
          End Site
          {
            OFFSET -7.32568 1.52588e-05 0.0169305
          }
        }
      }
    }
  }
  JOINT RightUpLeg
  {
    OFFSET -8.44614 -9.41038 0.835684
    CHANNELS 3 Zrotation Xrotation Yrotation
    JOINT RightLeg
    {
      OFFSET 0 -40.9639 0
      CHANNELS 3 Zrotation Xrotation Yrotation
      JOINT RightFoot
      {
        OFFSET 0 -40.9639 0
        CHANNELS 3 Zrotation Xrotation Yrotation
        End Site
        {
          OFFSET 0.50614 -9.67405 14.6709
        }
      }
    }
  }
  JOINT LeftUpLeg
  {
    OFFSET 8.44614 -9.41038 0.835684
    CHANNELS 3 Zrotation Xrotation Yrotation
    JOINT LeftLeg
    {
      OFFSET 0 -40.9639 0
      CHANNELS 3 Zrotation Xrotation Yrotation
      JOINT LeftFoot
      {
        OFFSET 0 -40.9639 0
        CHANNELS 3 Zrotation Xrotation Yrotation
        End Site
        {
          OFFSET -0.50614 -9.67405 14.6709
        }
      }
    }
  }
}
MOTION
Frames:	9
Frame Time:	0.0333333
-0.181541 89.7941 -19.4011 -7.24939 -35.3209 -49.5638 -4.34027 10.3021 -2.02884 -65.4975 -33.2037 46.7755 -0.0055916 -0.00298724 -2.7639 -19.9543 21.7085 25.044 -37.6237 28.8151 58.9629 41.1398 28.2545 4.27377 -0.00157211 -3.68043e-06 76.0426 13.7529 -8.87052 26.5479 -30.6217 6.73966 -25.9508 -15.9387 51.4014 4.88131 12.3854 -59.4345 3.02523 120.133 -51.7471 111.006 -11.2584 77.66 1.46036 -26.1559 -46.0118 -12.6506 
-0.616363 88.9027 -19.4849 -9.26991 -34.4251 -51.6828 -3.49773 10.0838 -1.34064 -62.7583 -37.6514 48.868 -0.00548756 -0.00299045 -0.769731 -17.7961 22.4121 24.3598 -37.818 30.2005 60.3292 42.726 28.635 2.39507 -0.00157216 -3.88418e-06 75.2529 15.4093 -12.1432 27.2504 -29.3652 6.13151 -25.7349 -16.8473 53.6981 6.34993 12.5708 -61.1411 3.77479 109.246 -52.7983 97.6984 0.0116433 59.0816 -9.80983 -15.5338 -48.089 -9.17522 
-1.05125 88.7438 -18.8481 -10.5105 -33.2321 -54.0939 -2.7733 9.51184 0.0721948 -60.3362 -41.8656 48.8081 -0.00544739 -0.00299072 -1.16949e-05 -16.0723 22.4941 23.3688 -37.6596 31.1154 61.0933 45.1339 28.7213 1.7347 -0.00157229 -4.36767e-06 73.367 17.4539 -16.7786 28.0849 -28.4841 5.69704 -25.1037 -17.0478 54.0767 6.97499 13.6127 -61.67 5.28476 92.7113 -51.54 78.6763 5.02696 38.1987 -12.8703 -9.50675 -47.4544 -7.03135 
-1.48802 89.2764 -17.2658 -11.3579 -32.3496 -56.933 -2.35133 8.61974 1.70754 -58.6307 -45.3502 47.5403 -0.00544739 -0.00299072 9.19003e-06 -15.0966 20.4197 22.7717 -37.7658 31.7287 61.449 47.6692 29.0767 1.94106 -0.00157253 -5.08747e-06 70.524 19.787 -21.1653 29.1951 -28.5941 6.15621 -23.916 -16.4704 52.5071 7.43867 14.8654 -61.1515 6.65312 73.2526 -44.7956 57.6559 8.53237 17.44 -9.35181 -15.1658 -40.448 -4.84918 
-2.05014 90.0811 -15.2887 -12.0656 -32.259 -59.4866 -2.27304 7.56264 2.98499 -57.7428 -47.766 45.6889 -0.00545041 -0.00299072 -0.0579101 -14.5399 15.7018 23.3796 -38.2489 32.1912 61.2855 49.5891 29.4823 2.17897 -0.00157281 -5.81821e-06 67.5856 22.1386 -23.8273 30.1179 -29.7273 7.7836 -22.7721 -15.57 49.801 8.36398 15.4676 -60.264 6.99056 58.1114 -34.1523 42.952 9.96394 4.65151 -4.39009 -23.0131 -30.3651 0.925689 
-2.79102 90.7279 -13.7556 -12.5095 -33.0296 -60.3614 -2.23119 6.54169 3.56748 -57.8093 -49.0453 43.1952 -0.0054496 -0.00299072 -0.0423507 -13.3421 9.88369 25.1594 -38.6382 32.5248 60.2461 50.4805 29.0492 1.62781 -0.00157301 -6.27762e-06 65.7066 23.8867 -24.3091 30.1061 -31.3341 10.4725 -22.7778 -14.7862 47.0256 9.55518 15.4743 -59.631 6.55639 48.1959 -28.5399 34.7615 10.0834 10.5848 -6.03591 -26.6708 -27.1552 4.11797 
-3.56631 91.0274 -12.114 -12.4383 -34.2823 -58.6918 -1.76147 5.59761 3.38888 -59.0138 -49.4249 39.0063 -0.00544739 -0.00299072 4.80464e-06 -11.0046 5.22453 27.1364 -37.6736 32.2902 57.84 50.6572 26.9019 0.523467 -0.00157302 -6.29959e-06 65.616 24.581 -23.2322 28.9749 -33.01 14.3011 -23.8787 -14.1909 44.4844 10.143 16.3052 -59.2286 6.28525 36.1988 -24.089 27.8732 9.90306 18.1546 -11.0194 -27.1023 -25.1344 0.559429 
-4.11168 90.9232 -10.2386 -11.9401 -34.6374 -55.3341 -0.690764 4.7329 2.75758 -61.3321 -49.0425 32.6097 -0.00545539 -0.00299071 -0.153312 -8.51078 2.72203 28.2164 -34.8122 30.9576 54.31 50.3736 23.3595 -0.121057 -0.00157285 -5.90783e-06 67.2211 24.3098 -21.7629 27.3617 -33.2929 17.8653 -25.4242 -13.8772 42.6788 9.67634 18.1058 -59.0072 6.36503 25.3915 -18.9149 22.0552 8.47962 23.0684 -12.935 -26.8646 -22.2029 -7.72592 
-4.29048 90.6645 -8.37318 -11.2689 -32.9633 -52.3547 0.710233 3.95637 2.09851 -64.1746 -47.7301 24.6271 -0.00552191 -0.00298979 -1.4279 -7.51439 1.79118 27.9725 -30.4366 28.3051 50.5026 49.7043 19.5796 0.522294 -0.00157259 -5.27024e-06 69.7944 23.4332 -20.8917 26.145 -31.6487 19.197 -26.4607 -13.3271 41.9392 8.1168 19.9565 -58.8615 6.60844 18.3205 -13.8474 17.9723 6.88918 24.7737 -12.4863 -26.6151 -17.4113 -11.3357 
